<?xml version="1.0" standalone="no"?>
<!DOCTYPE svg PUBLIC "-//W3C//DTD SVG 1.1//EN" "http://www.w3.org/Graphics/SVG/1.1/DTD/svg11.dtd" >
<svg xmlns="http://www.w3.org/2000/svg">
<metadata></metadata>
<defs>
<font id="zuishregular" horiz-adv-x="840" >
<font-face units-per-em="1024" ascent="816" descent="-208" />
<missing-glyph horiz-adv-x="500" />
<glyph horiz-adv-x="1024" />
<glyph horiz-adv-x="1024" />
<glyph unicode="&#xd;" />
<glyph unicode="A" d="M24 0v476h208v-104h376v104h208v-476h-792zM24 584v212h792v-212h-320v-108h-160v108h-312z" />
<glyph unicode="B" d="M24 0v208h584v380h-376v-264h-208v472h792v-796h-792zM344 324v148h152v-148h-152z" />
<glyph unicode="C" d="M24 0v796h792v-208h-320v-380h320v-208h-792zM608 324v148h208v-148h-208z" />
<glyph unicode="D" d="M24 0v208h208v-208h-208zM24 324v472h792v-796h-472v324h-320z" />
<glyph unicode="E" d="M24 0v472h208v-264h584v-208h-792zM24 588v208h792v-472h-472v264h-320z" />
<glyph unicode="F" d="M24 0v368h208v-160h112v160h152v-160h112v380h-112v-108h-152v108h-112v-108h-208v316h792v-796h-792z" />
<glyph unicode="G" d="M24 0v796h472v-208h-104v-380h104v-208h-472zM504 324v148h104v324h208v-796h-208v324h-104z" />
<glyph unicode="H" d="M24 0v796h792v-796h-208v588h-376v-380h264v-208h-472zM344 324v148h152v-148h-152z" />
<glyph unicode="I" d="M24 0v796h208v-324h376v324h208v-796h-792zM344 588v208h152v-208h-152z" />
<glyph unicode="J" d="M24 0v796h792v-472h-320v-324h-472zM608 0v208h208v-208h-208z" />
<glyph unicode="K" d="M24 0v796h472v-472h-264v-324h-208zM344 0v208h264v588h208v-796h-472z" />
<glyph unicode="L" d="M24 0v796h792v-796h-312v208h104v116h-104v148h104v116h-376v-116h160v-148h-160v-116h160v-208h-368z" />
<glyph unicode="M" d="M24 0v208h320v104h152v-104h320v-208h-792zM24 324v472h792v-472h-208v104h-376v-104h-208z" />
<glyph unicode="N" d="M24 0v796h792v-208h-584v-380h376v264h208v-472h-792zM344 324v148h152v-148h-152z" />
<glyph unicode="O" d="M24 0v208h320v380h-320v208h792v-796h-792zM24 324v148h208v-148h-208z" />
<glyph unicode="P" d="M24 0v796h472v-324h320v-472h-792zM608 588v208h208v-208h-208z" />
<glyph unicode="Q" d="M24 0v796h472v-472h-264v-324h-208zM344 0v208h264v588h208v-796h-472z" />
<glyph unicode="R" d="M24 0v796h792v-316h-208v108h-112v-108h-152v108h-112v-380h112v160h152v-160h112v160h208v-368h-792z" />
<glyph unicode="S" d="M24 0v796h208v-324h104v-148h-104v-324h-208zM344 0v208h104v380h-104v208h472v-796h-472z" />
<glyph unicode="T" d="M24 0v796h208v-588h376v380h-264v208h472v-796h-792zM344 324v148h152v-148h-152z" />
<glyph unicode="U" d="M24 0v796h792v-796h-208v324h-376v-324h-208zM344 0v208h152v-208h-152z" />
<glyph unicode="V" d="M24 0v796h792v-796h-208v324h-376v-324h-208zM344 0v208h152v-208h-152z" />
<glyph unicode="W" d="M24 0v472h320v324h472v-796h-792zM24 588v208h208v-208h-208z" />
<glyph unicode="X" d="M24 0v796h472v-208h-264v-588h-208zM344 0v472h264v324h208v-796h-472z" />
<glyph unicode="Y" d="M24 0v796h312v-208h-104v-116h104v-148h-104v-116h376v116h-160v148h160v116h-160v208h368v-796h-792z" />
<glyph unicode="Z" d="M24 0v472h472v-264h320v-208h-792zM24 588v208h792v-472h-208v264h-584z" />
<glyph unicode="a" d="M24 0v476h208v-104h376v104h208v-476h-792zM24 584v212h792v-212h-320v-108h-160v108h-312z" />
<glyph unicode="b" d="M24 0v208h584v380h-376v-264h-208v472h792v-796h-792zM344 324v148h152v-148h-152z" />
<glyph unicode="c" d="M24 0v796h792v-208h-320v-380h320v-208h-792zM608 324v148h208v-148h-208z" />
<glyph unicode="d" d="M24 0v208h208v-208h-208zM24 324v472h792v-796h-472v324h-320z" />
<glyph unicode="e" d="M24 0v472h208v-264h584v-208h-792zM24 588v208h792v-472h-472v264h-320z" />
<glyph unicode="f" d="M24 0v368h208v-160h112v160h152v-160h112v380h-112v-108h-152v108h-112v-108h-208v316h792v-796h-792z" />
<glyph unicode="g" d="M24 0v796h472v-208h-104v-380h104v-208h-472zM504 324v148h104v324h208v-796h-208v324h-104z" />
<glyph unicode="h" d="M24 0v796h792v-796h-208v588h-376v-380h264v-208h-472zM344 324v148h152v-148h-152z" />
<glyph unicode="i" d="M24 0v796h208v-324h376v324h208v-796h-792zM344 588v208h152v-208h-152z" />
<glyph unicode="j" d="M24 0v796h792v-472h-320v-324h-472zM608 0v208h208v-208h-208z" />
<glyph unicode="k" d="M24 0v796h472v-472h-264v-324h-208zM344 0v208h264v588h208v-796h-472z" />
<glyph unicode="l" d="M24 0v796h792v-796h-312v208h104v116h-104v148h104v116h-376v-116h160v-148h-160v-116h160v-208h-368z" />
<glyph unicode="m" d="M24 0v208h320v104h152v-104h320v-208h-792zM24 324v472h792v-472h-208v104h-376v-104h-208z" />
<glyph unicode="n" d="M24 0v796h792v-208h-584v-380h376v264h208v-472h-792zM344 324v148h152v-148h-152z" />
<glyph unicode="o" d="M24 0v208h320v380h-320v208h792v-796h-792zM24 324v148h208v-148h-208z" />
<glyph unicode="p" d="M24 0v796h472v-324h320v-472h-792zM608 588v208h208v-208h-208z" />
<glyph unicode="q" d="M24 0v796h472v-472h-264v-324h-208zM344 0v208h264v588h208v-796h-472z" />
<glyph unicode="r" d="M24 0v796h792v-316h-208v108h-112v-108h-152v108h-112v-380h112v160h152v-160h112v160h208v-368h-792z" />
<glyph unicode="s" d="M24 0v796h208v-324h104v-148h-104v-324h-208zM344 0v208h104v380h-104v208h472v-796h-472z" />
<glyph unicode="t" d="M24 0v796h208v-588h376v380h-264v208h472v-796h-792zM344 324v148h152v-148h-152z" />
<glyph unicode="u" d="M24 0v796h792v-796h-208v324h-376v-324h-208zM344 0v208h152v-208h-152z" />
<glyph unicode="v" d="M24 0v796h792v-796h-208v324h-376v-324h-208zM344 0v208h152v-208h-152z" />
<glyph unicode="w" d="M24 0v472h320v324h472v-796h-792zM24 588v208h208v-208h-208z" />
<glyph unicode="x" d="M24 0v796h472v-208h-264v-588h-208zM344 0v472h264v324h208v-796h-472z" />
<glyph unicode="y" d="M24 0v796h312v-208h-104v-116h104v-148h-104v-116h376v116h-160v148h160v116h-160v208h368v-796h-792z" />
<glyph unicode="z" d="M24 0v472h472v-264h320v-208h-792zM24 588v208h792v-472h-208v264h-584z" />
<glyph unicode="&#x2000;" horiz-adv-x="400" />
<glyph unicode="&#x2001;" horiz-adv-x="800" />
<glyph unicode="&#x2002;" horiz-adv-x="400" />
<glyph unicode="&#x2003;" horiz-adv-x="800" />
<glyph unicode="&#x2004;" horiz-adv-x="266" />
<glyph unicode="&#x2005;" horiz-adv-x="200" />
<glyph unicode="&#x2006;" horiz-adv-x="133" />
<glyph unicode="&#x2007;" horiz-adv-x="133" />
<glyph unicode="&#x2008;" horiz-adv-x="100" />
<glyph unicode="&#x2009;" horiz-adv-x="160" />
<glyph unicode="&#x200a;" horiz-adv-x="44" />
<glyph unicode="&#x202f;" horiz-adv-x="160" />
<glyph unicode="&#x205f;" horiz-adv-x="200" />
<glyph unicode="&#x20dd;" d="M336 0v100h168v-100h-168zM336 308zM336 308v484h168v-484h-168zM504 308z" />
<glyph unicode="&#x20de;" d="M28 312v172h92v-172h-92zM336 308v176h480v-176h-480z" />
<glyph unicode="&#x20e2;" d="M336 0v484h168v-484h-168zM336 692v104h168v-104h-168z" />
<glyph unicode="&#x20e3;" d="M24 308v176h480v-176h-480zM712 308v176h100v-176h-100z" />
<glyph unicode="&#x24ea;" d="M24 0v796h792v-796h-792zM200 180h432v432h-432v-432z" />
<glyph unicode="&#xe000;" horiz-adv-x="800" d="M0 0v800h800v-800h-800z" />
</font>
</defs>
</svg>
